#!OML:ASF H:\GeneralSubjects\Female5\Project 1\Capture day 1\Session 1\Female5.ASF
:FULLY-SPECIFIED
:DEGREES
73
root 7.31401 16.0111 3.55319 -175.426 -43.2264 -174.694
lowerback 6.55391 0.93741 -1.65959
upperback -10.3721 0.899834 3.60649
thorax -15.3142 0.649839 4.87787
lowerneck -17.5079 -3.9469 -4.79431
upperneck 32.8097 -5.31705 -1.33197
head 14.2762 -3.63503 -0.768795
rclavicle -8.99501e-014 3.57812e-014
rhumerus -53.4049 25.6896 -84.1246
rradius 52.506
rwrist -12.4565
rhand -14.9388 -21.641
rfingers 7.12502
rthumb 11.2238 -51.3207
lclavicle -8.99501e-014 3.57812e-014
lhumerus -48.0967 8.20073 78.1716
lradius 33.9788
lwrist -9.08566
lhand -18.7162 34.9992
lfingers 7.12502
lthumb 7.57905 64.8434
rfemur -3.10451 13.33 27.7386
rtibia 3.1882
rfoot -23.8617 -20.918
rtoes -1.02004
lfemur 11.4521 -51.8321 -37.1619
ltibia -3.58668
lfoot -75.4686 22.4494
ltoes -40.5745
74
root 7.32953 15.9996 3.54611 -175.092 -42.9549 -174.842
lowerback 6.20755 0.912991 -1.80839
upperback -10.3894 0.837235 3.62499
thorax -15.1101 0.629739 4.99107
lowerneck -17.3801 -3.86884 -4.66702
upperneck 32.6425 -5.1808 -1.50197
head 14.16 -3.58231 -0.824917
rclavicle -6.5102e-014 -8.5875e-014
rhumerus -53.4687 25.6433 -83.8285
rradius 54.0884
rwrist -11.7603
rhand -14.8228 -21.4579
rfingers 7.12502
rthumb 11.3357 -51.1315
lclavicle -6.5102e-014 -8.5875e-014
lhumerus -47.9498 8.15891 78.3865
lradius 33.9222
lwrist -8.94456
lhand -18.7422 34.9593
lfingers 7.12502
lthumb 7.55402 64.8044
rfemur -3.52009 13.4822 27.6222
rtibia 3.40442
rfoot -24.0776 -20.4797
rtoes 0.176265
lfemur 11.0553 -51.8678 -36.9278
ltibia -3.48957
lfoot -77.2099 23.9116
ltoes -44.1498
75
root 7.3396 15.9984 3.54122 -175.047 -42.5727 -174.907
lowerback 6.21351 0.915607 -1.84907
upperback -10.4058 0.832814 3.64408
thorax -15.136 0.632759 5.03821
lowerneck -17.3699 -3.74177 -4.41116
upperneck 32.5494 -4.98618 -1.73832
head 14.0957 -3.49845 -0.925411
rclavicle 6.53008e-014 6.16232e-014
rhumerus -53.7766 25.5775 -83.6041
rradius 56.2175
rwrist -11.1225
rhand -14.9853 -21.2962
rfingers 7.12502
rthumb 11.1789 -50.9784
lclavicle 6.53008e-014 6.16232e-014
lhumerus -48.1538 8.0224 78.6038
lradius 34.1444
lwrist -9.026
lhand -19.8328 34.4055
lfingers 7.12502
lthumb 6.50126 64.2857
rfemur -3.71059 13.3966 27.5928
rtibia 3.62414
rfoot -23.8363 -20.0213
rtoes 0.372051
lfemur 11.2501 -52.1162 -37.128
ltibia -3.38287
lfoot -77.252 23.4815
ltoes -42.3257
76
root 7.34939 15.9967 3.53561 -174.949 -42.1359 -174.985
lowerback 6.22726 0.925764 -1.89128
upperback -10.4594 0.833131 3.64913
thorax -15.2129 0.637272 5.07169
lowerneck -17.333 -3.54489 -4.18823
upperneck 32.5639 -4.71163 -1.9301
head 14.0762 -3.3849 -0.992916
rclavicle -1.6201e-014 9.93923e-015
rhumerus -54.276 25.3971 -83.2801
rradius 59.0441
rwrist -10.8145
rhand -15.289 -20.5106
rfingers 7.12502
rthumb 10.886 -50.2084
lclavicle -1.6201e-014 9.93923e-015
lhumerus -48.4173 7.94724 78.694
lradius 34.4745
lwrist -9.09313
lhand -21.8939 32.838
lfingers 7.12502
lthumb 4.5112 62.77
rfemur -3.98453 13.3571 27.5607
rtibia 3.90171
rfoot -23.3666 -19.7717
rtoes -0.474099
lfemur 11.4636 -52.4426 -37.3399
ltibia -3.32933
lfoot -78.0436 23.1851
ltoes -41.7552
77
root 7.36331 15.9948 3.53019 -174.774 -41.6778 -175.171
lowerback 6.26572 0.932079 -2.05689
upperback -10.5011 0.813077 3.6469
thorax -15.2931 0.64724 5.1707
lowerneck -17.3008 -3.30756 -4.00579
upperneck 32.596 -4.38437 -2.06585
head 14.0695 -3.24645 -1.02333
rclavicle 4.04527e-014 5.56597e-015
rhumerus -54.947 25.122 -82.8096
rradius 62.8186
rwrist -11.1058
rhand -16.2735 -19.6319
rfingers 7.12502
rthumb 9.93628 -49.3774
lclavicle 4.04527e-014 5.56597e-015
lhumerus -48.42 8.05603 78.6684
lradius 34.484
lwrist -9.17888
lhand -23.2409 31.4925
lfingers 7.12502
lthumb 3.21045 61.4481
rfemur -4.26325 13.686 27.4838
rtibia 4.18629
rfoot -23.2795 -19.6463
rtoes -0.828901
lfemur 11.5321 -52.5304 -37.478
ltibia -3.33004
lfoot -78.3149 22.856
ltoes -40.3339
78
root 7.37376 15.9951 3.52372 -174.758 -41.2056 -175.317
lowerback 6.36313 0.928992 -2.16143
upperback -10.4741 0.796875 3.65102
thorax -15.3251 0.653781 5.23855
lowerneck -17.3532 -3.07386 -3.64831
upperneck 32.6353 -4.04734 -2.38935
head 14.0757 -3.10691 -1.15987
rclavicle -1.35472e-013 1.03368e-014
rhumerus -55.6841 24.7385 -82.2379
rradius 67.4532
rwrist -11.924
rhand -18.3288 -19.7308
rfingers 7.12502
rthumb 7.95295 -49.5612
lclavicle -1.35472e-013 1.03368e-014
lhumerus -48.5242 8.10017 78.7077
lradius 34.6524
lwrist -9.01448
lhand -22.469 32.2633
lfingers 7.12502
lthumb 3.95592 62.2064
rfemur -4.32459 13.9059 27.4599
rtibia 4.36684
rfoot -23.1491 -19.476
rtoes -1.06265
lfemur 11.9139 -52.565 -37.8252
ltibia -3.39371
lfoot -78.6926 22.6322
ltoes -39.3625
